# xmcd
#
# Track frame offsets:
#	150
#	10726
#	27889
#	45956
#	64387
#	81216
#	101848
#	123270
#	137789
#	152836
#	179678
#	211786
#
# Disc length: 3159 seconds
#
# Revision: 0
# Processed by: cddbd v1.4PL0 Copyright (c) Steve Scherf et al.
# Submitted via: dBpowerAMP V4.0
#
DISCID=9d0c550c
DTITLE=P.iva and Hip Hop Heads - Black and White
DYEAR=2002
DGENRE=Rap
TTITLE0=Hip Hop Heads - Intro
TTITLE1=Hip Hop Heads - Apatija
TTITLE2=Hip Hop Heads - Boginja notch
TTITLE3=Hip Hop Heads - Zatchem
TTITLE4=Hip Hop Heads - Slojantchi bi
TTITLE5=P.iva - Tematika
TTITLE6=P.iva - Nashe imja P.iva
TTITLE7=P.iva - Mini devotchka
TTITLE8=P.iva - Ljubov
TTITLE9=P.iva - Rep v Estonii
TTITLE10=Criminalnõi Tsestõ, Googy Crew, P.iva, MC Bred and Hip Hop Heads (All Teams Featuring) - Golos severo vostoka
TTITLE11=Hig Fly Planet - Kin ruki v nebo
EXTD=
EXTT0=
EXTT1=
EXTT2=
EXTT3=
EXTT4=
EXTT5=
EXTT6=
EXTT7=
EXTT8=
EXTT9=
EXTT10=
EXTT11=
PLAYORDER=
